<?xml version="1.0" encoding="UTF-8"?>
<svg width="363px" height="353px" viewBox="0 0 363 353" version="1.1" xmlns="http://www.w3.org/2000/svg" xmlns:xlink="http://www.w3.org/1999/xlink">
    <!-- Generator: Sketch 48.2 (47327) - http://www.bohemiancoding.com/sketch -->
    <title>Combined Shape Copy</title>
    <desc>Created with Sketch.</desc>
    <defs></defs>
    <g id="Desktop" stroke="none" stroke-width="4" fill="none" fill-rule="evenodd" transform="translate(-180.000000, -251.000000)">
        <g id="Group" transform="translate(122.000000, 162.000000)" stroke="#000000" stroke-width="4">
            <path d="M190.605437,84.2971991 C206.047333,85.2373099 217.821263,92.5814891 225.927227,106.329737 C234.080322,120.15792 243.90074,150.352551 255.388482,196.913629 L308.438036,206.87284 L302.381626,189.382401 L331.011685,180.901231 L341.473612,204.488488 L451.038927,222.139786 L458.041506,240.947673 L278.163373,272.675213 C293.365766,325.616239 301.063655,355.871543 301.257039,363.441124 C301.450423,371.010704 329.973551,375.729058 386.826423,377.596185 L388.853273,388.869574 L304.022389,402.330987 L310.379861,423.616429 L309.947887,423.953924 L310.472143,425.445992 L308.038127,425.445992 L305.964946,427.065739 L305.418567,425.445992 L304.869535,425.445992 L296.774665,404.758784 L221.639342,446.378153 L216.29593,436.246748 C259.947087,399.773309 279.51871,378.494604 275.0108,372.410634 C270.502889,366.326664 257.941883,337.745866 237.327782,286.66824 L76.0484549,372.410634 L69.9872712,353.278599 L145.458693,271.914043 L139.181039,246.886025 L166.963363,235.942854 L172.959036,253.454206 L208.631153,212.945674 C189.017755,169.182484 178.166679,139.342737 176.077925,123.426433 C174.001207,107.601839 178.75788,94.565599 190.347945,84.3177131 L190.335713,84.2814503 C190.352413,84.2823839 190.369109,84.283325 190.3858,84.2842734 C190.440429,84.2360614 190.495209,84.1879112 190.550141,84.1398227 L190.605437,84.2971991 Z" id="Combined-Shape-Copy" transform="translate(264.014389, 265.258988) rotate(49.000000) translate(-264.014389, -265.258988) "></path>
        </g>
    </g>
</svg>